<svg width="45" height="63" viewBox="0 0 45 63" fill="none" xmlns="http://www.w3.org/2000/svg">
<path fill-rule="evenodd" clip-rule="evenodd" d="M29.1287 0.995311C29.7706 1.31665 30.2587 1.87968 30.4857 2.56069C30.7127 3.2417 30.66 3.98497 30.3393 4.62719L28.2376 8.83323H38.7514C40.188 8.83323 41.5657 9.40391 42.5815 10.4197C43.5974 11.4356 44.168 12.8133 44.168 14.2499V52.1666C44.168 53.6032 43.5974 54.9809 42.5815 55.9967C41.5657 57.0125 40.188 57.5832 38.7514 57.5832H6.25138C4.81479 57.5832 3.43704 57.0125 2.42122 55.9967C1.4054 54.9809 0.834717 53.6032 0.834717 52.1666V14.2499C0.834717 12.8133 1.4054 11.4356 2.42122 10.4197C3.43704 9.40391 4.81479 8.83323 6.25138 8.83323H16.7651L14.6635 4.62719C14.3683 3.98826 14.3335 3.25953 14.5663 2.59537C14.7992 1.9312 15.2814 1.38376 15.9109 1.06901C16.5404 0.754265 17.2677 0.696925 17.9388 0.909142C18.6098 1.12136 19.1719 1.58646 19.506 2.20594L22.5014 8.19135L25.4968 2.20594C25.8181 1.56403 26.3812 1.07595 27.0622 0.848946C27.7432 0.621943 28.4865 0.674587 29.1287 0.995311ZM26.5639 35.9166H18.4389C16.7199 35.9163 15.0651 36.5699 13.8102 37.7448C12.5554 38.9197 11.7944 40.5279 11.6816 42.2432L11.668 42.6874V44.0416C11.6688 44.7319 11.9331 45.3958 12.407 45.8978C12.8809 46.3997 13.5285 46.7018 14.2177 46.7422C14.9068 46.7827 15.5853 46.5585 16.1147 46.1154C16.644 45.6724 16.9842 45.0439 17.0658 44.3584L17.0847 44.0416V42.6874C17.0846 42.3704 17.1957 42.0635 17.3986 41.82C17.6015 41.5765 17.8834 41.4119 18.1951 41.3549L18.4389 41.3332H26.5639C26.8808 41.3331 27.1878 41.4442 27.4313 41.6471C27.6747 41.85 27.8393 42.1319 27.8964 42.4436L27.918 42.6874V44.0416C27.9188 44.7319 28.1831 45.3958 28.657 45.8978C29.1309 46.3997 29.7785 46.7018 30.4677 46.7422C31.1568 46.7827 31.8353 46.5585 32.3647 46.1154C32.894 45.6724 33.2342 45.0439 33.3158 44.3584L33.3347 44.0416V42.6874C33.335 40.9684 32.6814 39.3136 31.5065 38.0587C30.3316 36.8039 28.7234 36.0429 27.008 35.9301L26.5639 35.9166ZM22.5014 22.3749C21.0648 22.3749 19.687 22.9456 18.6712 23.9614C17.6554 24.9772 17.0847 26.355 17.0847 27.7916C17.0847 29.2281 17.6554 30.6059 18.6712 31.6217C19.687 32.6375 21.0648 33.2082 22.5014 33.2082C23.938 33.2082 25.3157 32.6375 26.3315 31.6217C27.3474 30.6059 27.918 29.2281 27.918 27.7916C27.918 26.355 27.3474 24.9772 26.3315 23.9614C25.3157 22.9456 23.938 22.3749 22.5014 22.3749Z" fill="#D59802"/>
</svg>
