<svg width="55" height="55" viewBox="0 0 55 55" fill="none" xmlns="http://www.w3.org/2000/svg">
<path d="M22.0001 27.4995C22.0001 26.0408 22.5796 24.6419 23.611 23.6104C24.6425 22.579 26.0414 21.9995 27.5001 21.9995C28.9588 21.9995 30.3578 22.579 31.3892 23.6104C32.4207 24.6419 33.0001 26.0408 33.0001 27.4995C33.0001 28.9582 32.4207 30.3572 31.3892 31.3886C30.3578 32.4201 28.9588 32.9995 27.5001 32.9995C26.0414 32.9995 24.6425 32.4201 23.611 31.3886C22.5796 30.3572 22.0001 28.9582 22.0001 27.4995Z" fill="#0B7A5F"/>
<path fill-rule="evenodd" clip-rule="evenodd" d="M0 12.833C0 11.3743 0.579463 9.97537 1.61091 8.94392C2.64236 7.91247 4.04131 7.33301 5.5 7.33301H49.5C50.9587 7.33301 52.3576 7.91247 53.3891 8.94392C54.4205 9.97537 55 11.3743 55 12.833V42.1663C55 43.625 54.4205 45.024 53.3891 46.0554C52.3576 47.0869 50.9587 47.6663 49.5 47.6663H5.5C4.04131 47.6663 2.64236 47.0869 1.61091 46.0554C0.579463 45.024 0 43.625 0 42.1663L0 12.833ZM14.6667 14.6663H7.33333V21.9997H11V18.333H14.6667V14.6663ZM44 18.333H40.3333V14.6663H47.6667V21.9997H44V18.333ZM27.5 18.333C25.0688 18.333 22.7373 19.2988 21.0182 21.0179C19.2991 22.7369 18.3333 25.0685 18.3333 27.4997C18.3333 29.9308 19.2991 32.2624 21.0182 33.9815C22.7373 35.7006 25.0688 36.6663 27.5 36.6663C29.9312 36.6663 32.2627 35.7006 33.9818 33.9815C35.7009 32.2624 36.6667 29.9308 36.6667 27.4997C36.6667 25.0685 35.7009 22.7369 33.9818 21.0179C32.2627 19.2988 29.9312 18.333 27.5 18.333ZM40.3333 36.6663V40.333H47.6667V32.9997H44V36.6663H40.3333ZM7.33333 32.9997H11V36.6663H14.6667V40.333H7.33333V32.9997Z" fill="#0B7A5F"/>
</svg>
