<svg width="55" height="44" viewBox="0 0 55 44" fill="none" xmlns="http://www.w3.org/2000/svg">
<path d="M52.7084 18.7049L47.291 9.71903C46.8945 9.06652 46.3372 8.52663 45.6725 8.15097C45.0077 7.77531 44.2578 7.57644 43.4942 7.57337H39.2409V6.94185C39.241 6.02984 39.0609 5.12681 38.711 4.28461C38.361 3.44241 37.8482 2.67763 37.2018 2.03422C35.8952 0.732249 34.126 0.000877058 32.2815 0.000151744H6.96218C5.58414 -0.00896976 4.23473 0.393326 3.08664 1.15555C1.93856 1.91777 1.04405 3.00525 0.517586 4.27879C0.169255 5.12309 -0.00666072 6.02854 0.000192815 6.94185V29.6615C0.00162127 30.7285 0.389608 31.7589 1.09232 32.5619C1.79504 33.3649 2.76488 33.886 3.82231 34.0289C3.81048 34.2572 3.81048 34.4846 3.82231 34.7112C3.81329 35.7869 4.02161 36.8533 4.43476 37.8465C4.84792 38.8398 5.4574 39.7393 6.22667 40.4913C6.98153 41.277 7.88511 41.9047 8.88482 42.3379C9.88453 42.7711 10.9604 43.0012 12.0499 43.0148C14.2243 42.9951 16.3046 42.1248 17.8452 40.5902C19.3844 39.058 20.259 36.9818 20.28 34.8101C20.293 34.6006 20.293 34.3906 20.28 34.1811H34.2521C34.2391 34.3906 34.2391 34.6006 34.2521 34.8101C34.2428 35.8862 34.4509 36.9531 34.8641 37.9468C35.2773 38.9405 35.8869 39.8405 36.6565 40.5927C37.412 41.379 38.3164 42.0071 39.317 42.4403C40.3176 42.8736 41.3945 43.1034 42.4848 43.1163C44.6592 43.0966 46.7395 42.2262 48.2801 40.6916C49.8184 39.1591 50.6921 37.0829 50.7124 34.9115C50.7255 34.7012 50.7255 34.4903 50.7124 34.28H52.6298C53.13 34.2729 53.6079 34.0714 53.9624 33.7184C54.3169 33.3653 54.5202 32.8882 54.5294 32.388V25.0937C54.5294 22.8365 53.8979 20.6249 52.7084 18.7049ZM16.4553 34.7086C16.4561 35.2884 16.3399 35.8624 16.1137 36.3962C15.8876 36.93 15.556 37.4128 15.139 37.8155C14.2953 38.6173 13.1758 39.0643 12.0118 39.0643C10.8479 39.0643 9.72842 38.6173 8.88465 37.8155C8.47338 37.4051 8.1477 36.9172 7.92653 36.3799C7.70535 35.8426 7.59309 35.2668 7.59624 34.6858C7.58432 34.0859 7.70559 33.4908 7.95131 32.9434C8.2861 32.1496 8.86182 31.48 9.5948 31.0235C10.3445 30.528 11.2276 30.2731 12.126 30.293C12.9832 30.293 13.8202 30.5467 14.5303 31.0235C15.2582 31.4876 15.8314 32.1546 16.1789 32.9434C16.4274 33.4887 16.5593 34.0847 16.5568 34.6858L16.4553 34.7086ZM46.8344 34.7086C46.8349 35.2886 46.7183 35.8627 46.4917 36.3965C46.2651 36.9303 45.9331 37.413 45.5156 37.8155C44.672 38.6165 43.553 39.0631 42.3897 39.0631C41.2263 39.0631 40.1074 38.6165 39.2638 37.8155C38.852 37.4054 38.5259 36.9175 38.3043 36.3802C38.0827 35.8429 37.97 35.267 37.9728 34.6858C37.9621 33.7662 38.2564 32.8689 38.8098 32.1343C39.4337 31.305 40.329 30.7141 41.3409 30.468H41.975C42.0909 30.4404 42.2117 30.4404 42.3275 30.468H42.8348C43.6033 30.5568 44.3362 30.8434 44.9602 31.3025C45.5866 31.7615 46.0761 32.3804 46.3779 33.0956C46.629 33.6409 46.7584 34.2369 46.7584 34.8354L46.8344 34.7086Z" fill="#D59802"/>
<path d="M30.4878 16.8535C30.4553 16.6937 30.3782 16.5464 30.2654 16.4286C30.1527 16.3108 30.0088 16.2273 29.8506 16.1878L23.9277 14.7062L26.1181 9.59403C26.1941 9.41658 26.2085 9.21878 26.1588 9.03222C26.1092 8.84567 25.9985 8.68112 25.8444 8.56486C25.6904 8.44804 25.5014 8.38654 25.3081 8.3903C25.1148 8.39406 24.9284 8.46286 24.779 8.58558L15.2816 16.3562C15.1577 16.4575 15.0644 16.5913 15.0122 16.7426C14.9599 16.8939 14.9507 17.0567 14.9857 17.2129C15.0206 17.3691 15.0982 17.5125 15.21 17.6271C15.3217 17.7417 15.463 17.8231 15.6183 17.862L21.4195 19.3133L18.5314 24.3677C18.4566 24.499 18.4176 24.6476 18.4182 24.7986C18.4188 24.9497 18.4591 25.098 18.5349 25.2286C18.6108 25.3593 18.7196 25.4677 18.8505 25.5431C18.9814 25.6186 19.1298 25.6584 19.2808 25.6585C19.4677 25.6585 19.6494 25.5979 19.7989 25.4858L30.1597 17.7152C30.2902 17.6173 30.3903 17.4843 30.4484 17.3318C30.5065 17.1793 30.5201 17.0135 30.4878 16.8535Z" fill="#F2F2F2"/>
</svg>
