<svg width="65" height="65" viewBox="0 0 65 65" fill="none" xmlns="http://www.w3.org/2000/svg">
<path fill-rule="evenodd" clip-rule="evenodd" d="M23.5278 11.8649C23.951 10.6617 24.738 9.61981 25.7797 8.88376C26.8214 8.1477 28.0663 7.75387 29.3418 7.75686H31.8498C33.2462 7.75291 34.6012 8.23082 35.6862 9.10994C36.7711 9.98905 37.5195 11.2155 37.8052 12.5824C38.0908 13.9493 37.8961 15.3729 37.254 16.6129C36.6119 17.8529 35.5616 18.8334 34.2805 19.3889L28.9102 21.7381C28.6808 21.8362 28.4933 22.0121 28.381 22.2349H35.3757C36.0506 22.2349 36.6978 22.503 37.175 22.9802C37.6522 23.4574 37.9203 24.1046 37.9203 24.7795C37.9203 25.4544 37.6522 26.1016 37.175 26.5788C36.6978 27.056 36.0506 27.3241 35.3757 27.3241H25.7264C25.3919 27.3247 25.0606 27.2593 24.7514 27.1316C24.4422 27.004 24.1611 26.8166 23.9244 26.5803C23.6877 26.3439 23.4999 26.0632 23.3718 25.7542C23.2436 25.4452 23.1777 25.114 23.1777 24.7795V22.7234C23.1777 20.2724 24.6271 18.0576 26.8705 17.0764L32.2447 14.7271C32.4562 14.6405 32.6305 14.4825 32.7375 14.2807C32.8446 14.0788 32.8774 13.8458 32.8305 13.6222C32.7836 13.3986 32.6597 13.1985 32.4806 13.0567C32.3014 12.915 32.0782 12.8404 31.8498 12.8461H29.3418C29.1189 12.8436 28.9009 12.9115 28.7189 13.0402C28.5368 13.1689 28.4 13.3517 28.328 13.5627C28.2166 13.8779 28.0441 14.168 27.8205 14.4166C27.5969 14.6651 27.3265 14.8672 27.0248 15.0112C26.4155 15.3021 25.7156 15.3391 25.079 15.1139C24.7638 15.0025 24.4737 14.83 24.2252 14.6064C23.9766 14.3828 23.7746 14.1124 23.6305 13.8107C23.3396 13.2014 23.3027 12.5015 23.5278 11.8649ZM48.3798 8.91315C48.8323 8.39767 49.4312 8.0323 50.0965 7.86571C50.7619 7.69911 51.4623 7.73919 52.1043 7.98062C52.7463 8.22204 53.2996 8.65334 53.6903 9.21708C54.0811 9.78082 54.2908 10.4502 54.2915 11.1361V18.6235C54.9405 18.6603 55.5507 18.9439 55.9972 19.4164C56.4436 19.8888 56.6923 20.5141 56.6923 21.1641C56.6923 21.814 56.4436 22.4394 55.9972 22.9118C55.5507 23.3842 54.9405 23.6679 54.2915 23.7046V24.7836C54.2915 25.4585 54.0234 26.1057 53.5462 26.5829C53.069 27.0601 52.4218 27.3282 51.7469 27.3282C51.072 27.3282 50.4248 27.0601 49.9476 26.5829C49.4703 26.1057 49.2023 25.4585 49.2023 24.7836V23.7087H42.973C42.3146 23.7099 41.6698 23.5209 41.1162 23.1646C40.5625 22.8083 40.1235 22.2998 39.8518 21.7001C39.5801 21.1003 39.4873 20.4349 39.5845 19.7838C39.6817 19.1326 39.9648 18.5233 40.3998 18.0291L48.3798 8.91315ZM46.6495 18.6194L49.2023 15.7002V18.6194H46.6495ZM36.7966 63.1853C34.2983 63.4529 31.7837 62.8566 29.6716 61.4956C19.1296 54.3986 10.0601 45.3291 2.96303 34.7871C1.62947 32.6542 1.06771 30.1286 1.3715 27.6315C1.67529 25.1345 2.82626 22.8172 4.63232 21.0664L6.17946 19.5192C6.87311 18.833 7.80945 18.4481 8.78518 18.4481C9.76091 18.4481 10.6972 18.833 11.3909 19.5192L17.6609 26.0335C18.3446 26.7202 18.7285 27.6498 18.7285 28.6189C18.7285 29.5879 18.3446 30.5175 17.6609 31.2042C16.9747 31.8979 16.5898 32.8342 16.5898 33.8099C16.5898 34.7857 16.9747 35.722 17.6609 36.4156L28.043 46.7978C28.7367 47.484 29.673 47.8689 30.6488 47.8689C31.6245 47.8689 32.5608 47.484 33.2545 46.7978C33.9412 46.1141 34.8708 45.7302 35.8398 45.7302C36.8089 45.7302 37.7385 46.1141 38.4252 46.7978L44.9395 53.2714C45.6257 53.965 46.0106 54.9013 46.0106 55.8771C46.0106 56.8528 45.6257 57.7891 44.9395 58.4828L43.3923 60.0299C41.6182 61.8035 39.2908 62.9169 36.7966 63.1853Z" fill="#0B7A5F"/>
</svg>
