<svg width="168" height="80" viewBox="0 0 168 80" fill="none" xmlns="http://www.w3.org/2000/svg">
<path d="M66.9576 46.7851C65.9304 46.7851 65.0158 46.6092 64.2138 46.2574C63.4118 45.9057 62.7786 45.4273 62.3143 44.8222C61.85 44.2031 61.5897 43.5137 61.5334 42.7539H65.1003C65.1425 43.1619 65.3324 43.4926 65.6701 43.7458C66.0078 43.9991 66.4229 44.1257 66.9153 44.1257C67.3656 44.1257 67.7103 44.0413 67.9495 43.8725C68.2028 43.6896 68.3294 43.4574 68.3294 43.176C68.3294 42.8383 68.1535 42.5921 67.8018 42.4373C67.45 42.2685 66.8802 42.0855 66.0922 41.8886C65.248 41.6916 64.5445 41.4875 63.9817 41.2765C63.4188 41.0514 62.9334 40.7066 62.5254 40.2423C62.1173 39.7639 61.9133 39.1237 61.9133 38.3217C61.9133 37.6463 62.0962 37.0343 62.4621 36.4855C62.842 35.9227 63.3907 35.4795 64.1083 35.1559C64.84 34.8322 65.7053 34.6704 66.7043 34.6704C68.1817 34.6704 69.3425 35.0363 70.1867 35.7679C71.045 36.4996 71.5375 37.4704 71.6641 38.6805H68.3294C68.2731 38.2725 68.0902 37.9488 67.7807 37.7096C67.4852 37.4704 67.0912 37.3508 66.5988 37.3508C66.1766 37.3508 65.853 37.4353 65.6279 37.6041C65.4028 37.7589 65.2902 37.977 65.2902 38.2584C65.2902 38.5961 65.4661 38.8493 65.8179 39.0182C66.1837 39.187 66.7465 39.3559 67.5063 39.5247C68.3787 39.7499 69.0892 39.975 69.638 40.2001C70.1867 40.4112 70.6651 40.7629 71.0731 41.2554C71.4953 41.7338 71.7134 42.381 71.7274 43.1971C71.7274 43.8866 71.5304 44.5057 71.1365 45.0544C70.7566 45.5891 70.2008 46.0112 69.4691 46.3207C68.7515 46.6303 67.9143 46.7851 66.9576 46.7851ZM85.037 40.5378C85.037 40.8755 85.0159 41.2272 84.9737 41.5931H76.8058C76.8621 42.3247 77.0942 42.8876 77.5023 43.2815C77.9244 43.6614 78.438 43.8514 79.043 43.8514C79.9435 43.8514 80.5696 43.4715 80.9214 42.7117H84.7626C84.5656 43.4855 84.2068 44.182 83.6862 44.8011C83.1797 45.4202 82.5395 45.9057 81.7656 46.2574C80.9917 46.6092 80.1264 46.7851 79.1696 46.7851C78.0158 46.7851 76.9887 46.5388 76.0882 46.0464C75.1877 45.5539 74.4842 44.8504 73.9776 43.9358C73.4711 43.0212 73.2178 41.9519 73.2178 40.7277C73.2178 39.5036 73.4641 38.4343 73.9565 37.5197C74.4631 36.6051 75.1666 35.9016 76.0671 35.4091C76.9676 34.9167 78.0018 34.6704 79.1696 34.6704C80.3093 34.6704 81.3224 34.9096 82.2088 35.388C83.0953 35.8664 83.7847 36.5488 84.2772 37.4353C84.7837 38.3217 85.037 39.3559 85.037 40.5378ZM81.3435 39.588C81.3435 38.9689 81.1324 38.4765 80.7103 38.1107C80.2882 37.7448 79.7606 37.5619 79.1274 37.5619C78.5224 37.5619 78.0088 37.7378 77.5867 38.0895C77.1787 38.4413 76.9254 38.9408 76.8269 39.588H81.3435ZM90.55 36.8021C90.9721 36.1549 91.4997 35.6483 92.1329 35.2825C92.7661 34.9026 93.4696 34.7126 94.2435 34.7126V38.5328H93.2515C92.351 38.5328 91.6756 38.7297 91.2254 39.1237C90.7751 39.5036 90.55 40.179 90.55 41.1499V46.6162H86.9409V34.8393H90.55V36.8021ZM101.266 43.2393L103.82 34.8393H107.661L103.482 46.6162H99.0288L94.8499 34.8393H98.7123L101.266 43.2393Z" fill="white"/>
<rect width="58.0615" height="26.4502" transform="translate(109.364 26.6279)" fill="white"/>
<path d="M124.784 40.7546C124.784 41.0923 124.763 41.444 124.721 41.8099H116.553C116.609 42.5415 116.841 43.1044 117.249 43.4983C117.671 43.8782 118.185 44.0682 118.79 44.0682C119.69 44.0682 120.317 43.6883 120.668 42.9285H124.51C124.313 43.7023 123.954 44.3988 123.433 45.0179C122.927 45.637 122.286 46.1225 121.513 46.4742C120.739 46.826 119.873 47.0019 118.917 47.0019C117.763 47.0019 116.736 46.7556 115.835 46.2632C114.935 45.7707 114.231 45.0672 113.725 44.1526C113.218 43.238 112.965 42.1687 112.965 40.9445C112.965 39.7204 113.211 38.6511 113.703 37.7365C114.21 36.8219 114.913 36.1184 115.814 35.6259C116.714 35.1335 117.749 34.8872 118.917 34.8872C120.056 34.8872 121.069 35.1264 121.956 35.6048C122.842 36.0832 123.532 36.7656 124.024 37.6521C124.531 38.5385 124.784 39.5727 124.784 40.7546ZM121.09 39.8048C121.09 39.1857 120.879 38.6933 120.457 38.3274C120.035 37.9616 119.507 37.7787 118.874 37.7787C118.269 37.7787 117.756 37.9546 117.334 38.3063C116.926 38.6581 116.672 39.1576 116.574 39.8048H121.09ZM125.97 40.9234C125.97 39.7134 126.195 38.6511 126.646 37.7365C127.11 36.8219 127.736 36.1184 128.524 35.6259C129.312 35.1335 130.191 34.8872 131.162 34.8872C131.992 34.8872 132.717 35.0561 133.336 35.3938C133.969 35.7315 134.455 36.1747 134.792 36.7234V35.0561H138.401V46.833H134.792V45.1657C134.441 45.7144 133.948 46.1576 133.315 46.4953C132.696 46.833 131.971 47.0019 131.141 47.0019C130.184 47.0019 129.312 46.7556 128.524 46.2632C127.736 45.7566 127.11 45.0461 126.646 44.1315C126.195 43.2028 125.97 42.1335 125.97 40.9234ZM134.792 40.9445C134.792 40.044 134.539 39.3335 134.033 38.8129C133.54 38.2923 132.935 38.032 132.218 38.032C131.5 38.032 130.888 38.2923 130.381 38.8129C129.889 39.3194 129.643 40.0229 129.643 40.9234C129.643 41.8239 129.889 42.5415 130.381 43.0762C130.888 43.5968 131.5 43.8571 132.218 43.8571C132.935 43.8571 133.54 43.5968 134.033 43.0762C134.539 42.5556 134.792 41.845 134.792 40.9445ZM145.803 47.0019C144.776 47.0019 143.862 46.826 143.06 46.4742C142.258 46.1225 141.625 45.6441 141.16 45.039C140.696 44.4199 140.436 43.7305 140.379 42.9707H143.946C143.988 43.3787 144.178 43.7094 144.516 43.9626C144.854 44.2159 145.269 44.3425 145.761 44.3425C146.211 44.3425 146.556 44.2581 146.795 44.0893C147.049 43.9064 147.175 43.6742 147.175 43.3928C147.175 43.0551 146.999 42.8089 146.648 42.6541C146.296 42.4853 145.726 42.3023 144.938 42.1054C144.094 41.9084 143.39 41.7043 142.828 41.4933C142.265 41.2682 141.779 40.9234 141.371 40.4591C140.963 39.9807 140.759 39.3405 140.759 38.5385C140.759 37.8631 140.942 37.2511 141.308 36.7023C141.688 36.1395 142.237 35.6963 142.954 35.3727C143.686 35.049 144.551 34.8872 145.55 34.8872C147.028 34.8872 148.188 35.2531 149.033 35.9847C149.891 36.7164 150.383 37.6872 150.51 38.8973H147.175C147.119 38.4893 146.936 38.1656 146.627 37.9264C146.331 37.6872 145.937 37.5676 145.445 37.5676C145.023 37.5676 144.699 37.6521 144.474 37.8209C144.249 37.9757 144.136 38.1938 144.136 38.4752C144.136 38.8129 144.312 39.0661 144.664 39.235C145.03 39.4038 145.592 39.5727 146.352 39.7415C147.225 39.9666 147.935 40.1918 148.484 40.4169C149.033 40.628 149.511 40.9797 149.919 41.4722C150.341 41.9506 150.559 42.5978 150.573 43.4139C150.573 44.1033 150.376 44.7224 149.982 45.2712C149.602 45.8059 149.047 46.228 148.315 46.5375C147.597 46.8471 146.76 47.0019 145.803 47.0019ZM163.883 40.7546C163.883 41.0923 163.862 41.444 163.82 41.8099H155.652C155.708 42.5415 155.94 43.1044 156.348 43.4983C156.77 43.8782 157.284 44.0682 157.889 44.0682C158.789 44.0682 159.415 43.6883 159.767 42.9285H163.608C163.411 43.7023 163.053 44.3988 162.532 45.0179C162.026 45.637 161.385 46.1225 160.611 46.4742C159.838 46.826 158.972 47.0019 158.015 47.0019C156.862 47.0019 155.835 46.7556 154.934 46.2632C154.034 45.7707 153.33 45.0672 152.823 44.1526C152.317 43.238 152.064 42.1687 152.064 40.9445C152.064 39.7204 152.31 38.6511 152.802 37.7365C153.309 36.8219 154.012 36.1184 154.913 35.6259C155.813 35.1335 156.848 34.8872 158.015 34.8872C159.155 34.8872 160.168 35.1264 161.055 35.6048C161.941 36.0832 162.631 36.7656 163.123 37.6521C163.63 38.5385 163.883 39.5727 163.883 40.7546ZM160.189 39.8048C160.189 39.1857 159.978 38.6933 159.556 38.3274C159.134 37.9616 158.606 37.7787 157.973 37.7787C157.368 37.7787 156.855 37.9546 156.433 38.3063C156.025 38.6581 155.771 39.1576 155.673 39.8048H160.189Z" fill="#161C2D"/>
<path d="M39.7242 18.5913C26.0148 18.5913 19.1661 28.2524 19.1661 38.4085C20.0254 52.7049 29.5012 56.2205 39.7242 57.8349C42.9515 52.2463 46.7264 44.5682 49.4679 41.0669C52.2095 37.5656 54.754 30.098 55.6836 26.8019C51.764 22.4197 46.1539 18.5913 39.7242 18.5913Z" fill="#F4C34A"/>
<circle cx="4.60933" cy="4.60933" r="4.60933" transform="matrix(-0.83685 0.547432 0.547432 0.83685 42.1662 19.4507)" fill="white"/>
<circle cx="2.37624" cy="2.37624" r="2.37624" transform="matrix(-0.83685 0.547432 0.547432 0.83685 27.4917 46.377)" fill="white"/>
<path d="M38.7956 32.4396C34.7577 32.5396 32.4518 34.4893 30.7785 36.7212C29.5747 38.3267 29.2125 42.3134 29.165 44.658C29.216 45.4653 28.3566 46.3455 28.6691 46.7413C29.0597 47.2361 29.8919 48.7465 29.6066 49.6058C29.3213 50.4651 29.7108 50.2308 29.841 50.0745C29.9253 49.9734 30.2316 49.3194 30.2316 48.434C30.2316 47.4444 30.2316 47.4184 30.3097 46.7413C30.4233 45.7572 30.6222 43.356 31.3253 41.1165C31.3253 41.1165 31.9453 39.0877 33.4634 38.6192C36.0391 37.8243 39.4482 41.7917 40.7771 46.6155C42.2924 52.1158 39.9401 57.8295 35.9655 61.6787C33.5946 63.9749 26.143 67.2139 23.7578 63.4763C22.185 61.0117 27.3911 53.8735 27.9142 52.5485C25.831 53.2776 23.9297 51.6109 24.0602 49.7881C22.812 53.7458 18.3745 63.3906 26.8897 65.8408C38.7957 69.2666 43.1283 61.3806 45.3348 57.896C48.277 53.2494 48.5023 45.0045 46.8716 40.9082C46.1801 39.1711 46.0116 37.7368 46.0116 36.7212C46.0116 35.8585 45.6264 34.3488 47.9786 31.2865C49.8604 28.8366 48.9549 24.5806 48.8717 21.6604C48.7466 20.5182 48.722 19.8405 47.757 19.6329C46.4102 19.343 46.4884 20.9457 46.429 21.8203C46.7935 27.0805 47.106 28.695 45.9081 30.2575C43.6463 33.2077 42.8335 32.3396 38.7956 32.4396Z" fill="white"/>
<path d="M56.165 24.1679C56.8189 19.3244 55.8647 15.0623 51.5845 13.343C49.3178 12.4326 46.9561 13.1242 43.0839 16.8746L43.9048 17.0835C46.5608 13.9031 50.377 12.5095 52.0508 14.8056C52.9899 16.0939 53.1815 18.1934 52.9105 20.6634C52.2838 26.3769 49.1819 34.0731 47.132 38.2989C46.9324 38.535 46.705 39.4291 47.3925 41.1165C48.0799 42.8039 49.3294 41.521 49.8681 40.6686C52.3095 36.5666 55.3841 29.9525 56.165 24.1679Z" fill="white"/>
<path d="M56.1159 51.2023C55.138 49.559 51.6612 46.9599 51.1376 46.4528C50.8932 46.2161 49.0471 44.3112 48.6846 44.044C49.1139 45.8858 49.4479 50.3711 48.36 52.25C48.7551 51.8301 52.2404 51.4596 53.5581 52.0567C54.5404 52.5018 57.4445 55.3876 58.1786 56.9603C58.3417 57.3097 58.7175 58.5993 59.8069 58.6259C60.8962 58.6525 60.4447 57.9516 61.5541 57.7867C62.6635 57.6217 63.7424 56.6823 63.683 56.1102C63.6355 55.6525 62.8224 55.6944 62.4218 55.7725C61.8182 55.9447 60.3916 56.1904 59.5132 55.795C58.4153 55.3007 57.0939 52.8456 56.1159 51.2023Z" fill="white"/>
<path d="M33.5395 14.5201C38.0535 13.848 42.9587 14.851 44.847 15.4365L43.1957 16.9044C36.0768 15.2437 27.7169 16.8808 21.7617 23.8325C15.8065 30.7843 16.3872 39.4818 17.0403 41.9967C17.6933 44.5117 19.392 50.961 26.024 55.3465C31.3296 58.8548 36.3869 59.2527 38.2524 59.0131L36.3941 61.4717C25.3014 60.3989 19.1617 53.1948 17.4785 49.7268C13.8958 43.5177 14.0808 38.0826 14.3891 34.5967C14.6973 31.1108 16.7046 25.5328 20.154 21.8281C23.6034 18.1233 27.8969 15.3603 33.5395 14.5201Z" fill="white"/>
</svg>
