<svg width="142" height="67" viewBox="0 0 142 67" fill="none" xmlns="http://www.w3.org/2000/svg">
<path d="M56.3958 39.7029C55.5307 39.7029 54.7604 39.5547 54.0849 39.2585C53.4094 38.9622 52.8761 38.5593 52.485 38.0497C52.0939 37.5282 51.8747 36.9475 51.8273 36.3076H54.8315C54.8671 36.6512 55.027 36.9297 55.3115 37.1431C55.5959 37.3564 55.9455 37.463 56.3603 37.463C56.7395 37.463 57.0299 37.3919 57.2313 37.2497C57.4446 37.0957 57.5513 36.9001 57.5513 36.6631C57.5513 36.3787 57.4032 36.1713 57.1069 36.0409C56.8106 35.8987 56.3306 35.7446 55.667 35.5787C54.9559 35.4128 54.3634 35.241 53.8893 35.0632C53.4153 34.8736 53.0064 34.5832 52.6628 34.1922C52.3191 33.7892 52.1472 33.25 52.1472 32.5745C52.1472 32.0057 52.3013 31.4901 52.6094 31.028C52.9294 30.5539 53.3916 30.1806 53.996 29.908C54.6123 29.6355 55.3411 29.4992 56.1825 29.4992C57.4269 29.4992 58.4046 29.8073 59.1156 30.4236C59.8385 31.0398 60.2533 31.8575 60.36 32.8767H57.5513C57.5039 32.533 57.3498 32.2605 57.0891 32.059C56.8402 31.8575 56.5084 31.7568 56.0936 31.7568C55.7381 31.7568 55.4655 31.8279 55.2759 31.9701C55.0863 32.1005 54.9915 32.2842 54.9915 32.5212C54.9915 32.8056 55.1396 33.0189 55.4359 33.1611C55.744 33.3033 56.2181 33.4456 56.858 33.5878C57.5928 33.7774 58.1913 33.967 58.6534 34.1566C59.1156 34.3344 59.5186 34.6307 59.8622 35.0454C60.2178 35.4484 60.4015 35.9935 60.4133 36.6809C60.4133 37.2616 60.2474 37.783 59.9156 38.2452C59.5956 38.6955 59.1275 39.0511 58.5112 39.3118C57.9068 39.5725 57.2017 39.7029 56.3958 39.7029ZM71.6235 34.441C71.6235 34.7255 71.6057 35.0217 71.5702 35.3299H64.6906C64.7381 35.9461 64.9336 36.4202 65.2773 36.752C65.6328 37.072 66.0654 37.2319 66.575 37.2319C67.3334 37.2319 67.8608 36.912 68.1571 36.272H71.3924C71.2265 36.9238 70.9243 37.5104 70.4858 38.0319C70.0592 38.5533 69.5199 38.9622 68.8681 39.2585C68.2163 39.5547 67.4875 39.7029 66.6816 39.7029C65.7098 39.7029 64.8447 39.4955 64.0862 39.0807C63.3278 38.6659 62.7352 38.0734 62.3086 37.3031C61.882 36.5327 61.6686 35.6321 61.6686 34.601C61.6686 33.57 61.876 32.6693 62.2908 31.899C62.7175 31.1287 63.31 30.5361 64.0685 30.1213C64.8269 29.7066 65.698 29.4992 66.6816 29.4992C67.6415 29.4992 68.4948 29.7006 69.2414 30.1036C69.988 30.5065 70.5687 31.0813 70.9835 31.8279C71.4102 32.5745 71.6235 33.4456 71.6235 34.441ZM68.5126 33.6411C68.5126 33.1197 68.3348 32.7049 67.9793 32.3967C67.6238 32.0886 67.1794 31.9346 66.6461 31.9346C66.1365 31.9346 65.7039 32.0827 65.3484 32.379C65.0047 32.6752 64.7914 33.096 64.7084 33.6411H68.5126ZM76.2669 31.2946C76.6224 30.7495 77.0668 30.3228 77.6001 30.0147C78.1334 29.6947 78.726 29.5347 79.3778 29.5347V32.7523H78.5423C77.7838 32.7523 77.215 32.9182 76.8357 33.25C76.4565 33.57 76.2669 34.1388 76.2669 34.9566V39.5607H73.2271V29.6414H76.2669V31.2946ZM85.2926 36.7164L87.4436 29.6414H90.6789L87.1592 39.5607H83.4083L79.8886 29.6414H83.1417L85.2926 36.7164Z" fill="#0B7A5F"/>
<rect width="48.9031" height="22.2781" transform="translate(92.113 22.097)" fill="#0B7A5F"/>
<path d="M105.101 34.623C105.101 34.9075 105.083 35.2037 105.048 35.5119H98.1683C98.2157 36.1281 98.4113 36.6022 98.7549 36.934C99.1105 37.254 99.543 37.414 100.053 37.414C100.811 37.414 101.338 37.094 101.635 36.454H104.87C104.704 37.1058 104.402 37.6925 103.963 38.2139C103.537 38.7353 102.998 39.1442 102.346 39.4405C101.694 39.7368 100.965 39.8849 100.159 39.8849C99.1875 39.8849 98.3224 39.6775 97.5639 39.2627C96.8054 38.8479 96.2129 38.2554 95.7863 37.4851C95.3596 36.7147 95.1463 35.8141 95.1463 34.783C95.1463 33.752 95.3537 32.8513 95.7685 32.081C96.1951 31.3107 96.7877 30.7181 97.5461 30.3034C98.3046 29.8886 99.1756 29.6812 100.159 29.6812C101.119 29.6812 101.972 29.8826 102.719 30.2856C103.466 30.6885 104.046 31.2633 104.461 32.0099C104.888 32.7565 105.101 33.6276 105.101 34.623ZM101.99 33.8231C101.99 33.3017 101.812 32.8869 101.457 32.5787C101.101 32.2706 100.657 32.1166 100.124 32.1166C99.6141 32.1166 99.1816 32.2647 98.826 32.561C98.4824 32.8572 98.269 33.278 98.1861 33.8231H101.99ZM106.1 34.7653C106.1 33.7461 106.29 32.8513 106.669 32.081C107.06 31.3107 107.588 30.7181 108.251 30.3034C108.915 29.8886 109.656 29.6812 110.473 29.6812C111.173 29.6812 111.783 29.8234 112.304 30.1078C112.838 30.3922 113.247 30.7655 113.531 31.2277V29.8234H116.571V39.7427H113.531V38.3383C113.235 38.8005 112.82 39.1738 112.287 39.4583C111.765 39.7427 111.155 39.8849 110.456 39.8849C109.65 39.8849 108.915 39.6775 108.251 39.2627C107.588 38.8361 107.06 38.2376 106.669 37.4673C106.29 36.6851 106.1 35.7844 106.1 34.7653ZM113.531 34.783C113.531 34.0246 113.318 33.4261 112.891 32.9876C112.476 32.5491 111.967 32.3299 111.362 32.3299C110.758 32.3299 110.242 32.5491 109.816 32.9876C109.401 33.4142 109.193 34.0068 109.193 34.7653C109.193 35.5237 109.401 36.1281 109.816 36.5785C110.242 37.0169 110.758 37.2362 111.362 37.2362C111.967 37.2362 112.476 37.0169 112.891 36.5785C113.318 36.14 113.531 35.5415 113.531 34.783ZM122.805 39.8849C121.94 39.8849 121.17 39.7368 120.494 39.4405C119.819 39.1442 119.285 38.7413 118.894 38.2317C118.503 37.7102 118.284 37.1295 118.237 36.4896H121.241C121.276 36.8333 121.436 37.1118 121.721 37.3251C122.005 37.5384 122.355 37.645 122.77 37.645C123.149 37.645 123.439 37.5739 123.641 37.4317C123.854 37.2777 123.961 37.0821 123.961 36.8451C123.961 36.5607 123.812 36.3533 123.516 36.2229C123.22 36.0807 122.74 35.9267 122.076 35.7607C121.365 35.5948 120.773 35.423 120.299 35.2452C119.825 35.0556 119.416 34.7653 119.072 34.3742C118.728 33.9712 118.557 33.432 118.557 32.7565C118.557 32.1877 118.711 31.6721 119.019 31.21C119.339 30.7359 119.801 30.3626 120.405 30.09C121.022 29.8175 121.75 29.6812 122.592 29.6812C123.836 29.6812 124.814 29.9893 125.525 30.6056C126.248 31.2218 126.663 32.0395 126.769 33.0587H123.961C123.913 32.715 123.759 32.4425 123.498 32.241C123.25 32.0395 122.918 31.9388 122.503 31.9388C122.147 31.9388 121.875 32.0099 121.685 32.1521C121.496 32.2825 121.401 32.4662 121.401 32.7032C121.401 32.9876 121.549 33.2009 121.845 33.3431C122.153 33.4853 122.627 33.6276 123.267 33.7698C124.002 33.9594 124.601 34.149 125.063 34.3386C125.525 34.5164 125.928 34.8127 126.272 35.2274C126.627 35.6304 126.811 36.1755 126.823 36.8629C126.823 37.4436 126.657 37.965 126.325 38.4272C126.005 38.8776 125.537 39.2331 124.921 39.4938C124.316 39.7545 123.611 39.8849 122.805 39.8849ZM138.033 34.623C138.033 34.9075 138.015 35.2037 137.979 35.5119H131.1C131.147 36.1281 131.343 36.6022 131.687 36.934C132.042 37.254 132.475 37.414 132.984 37.414C133.743 37.414 134.27 37.094 134.566 36.454H137.802C137.636 37.1058 137.334 37.6925 136.895 38.2139C136.468 38.7353 135.929 39.1442 135.277 39.4405C134.626 39.7368 133.897 39.8849 133.091 39.8849C132.119 39.8849 131.254 39.6775 130.496 39.2627C129.737 38.8479 129.145 38.2554 128.718 37.4851C128.291 36.7147 128.078 35.8141 128.078 34.783C128.078 33.752 128.285 32.8513 128.7 32.081C129.127 31.3107 129.719 30.7181 130.478 30.3034C131.236 29.8886 132.107 29.6812 133.091 29.6812C134.051 29.6812 134.904 29.8826 135.651 30.2856C136.397 30.6885 136.978 31.2633 137.393 32.0099C137.819 32.7565 138.033 33.6276 138.033 34.623ZM134.922 33.8231C134.922 33.3017 134.744 32.8869 134.389 32.5787C134.033 32.2706 133.589 32.1166 133.055 32.1166C132.546 32.1166 132.113 32.2647 131.758 32.561C131.414 32.8572 131.201 33.278 131.118 33.8231H134.922Z" fill="white"/>
<path d="M33.4581 15.328C21.9111 15.328 16.1427 23.4652 16.1427 32.0193C16.8665 44.0606 24.8476 47.0218 33.4581 48.3815C36.1763 43.6744 39.3558 37.2074 41.6649 34.2584C43.974 31.3094 46.1172 25.0197 46.9001 22.2435C43.5988 18.5526 38.8736 15.328 33.4581 15.328Z" fill="#F4C34A"/>
<circle cx="3.88228" cy="3.88228" r="3.88228" transform="matrix(-0.83685 0.547432 0.547432 0.83685 35.515 16.0518)" fill="#0B7A5F"/>
<circle cx="2.00142" cy="2.00142" r="2.00142" transform="matrix(-0.83685 0.547432 0.547432 0.83685 23.1552 38.7308)" fill="#0B7A5F"/>
<path d="M32.6761 26.992C29.2751 27.0762 27.333 28.7184 25.9236 30.5982C24.9097 31.9505 24.6046 35.3083 24.5647 37.2831C24.6076 37.9631 23.8838 38.7044 24.147 39.0378C24.476 39.4545 25.1769 40.7266 24.9366 41.4504C24.6963 42.1742 25.0243 41.9768 25.134 41.8452C25.205 41.76 25.463 41.2092 25.463 40.4635C25.463 39.63 25.463 39.6081 25.5288 39.0378C25.6244 38.2089 25.792 36.1865 26.3842 34.3002C26.3842 34.3002 26.9064 32.5914 28.1851 32.1968C30.3544 31.5273 33.2258 34.8689 34.3451 38.9319C35.6214 43.5645 33.6401 48.377 30.2925 51.619C28.2956 53.553 22.0194 56.2811 20.0104 53.133C18.6856 51.0572 23.0706 45.045 23.5112 43.929C21.7565 44.5431 20.1552 43.1393 20.265 41.604C19.2138 44.9374 15.4762 53.0609 22.6482 55.1246C32.6762 58.01 36.3255 51.368 38.1839 48.433C40.662 44.5193 40.8518 37.5749 39.4783 34.1247C38.8959 32.6617 38.754 31.4536 38.754 30.5982C38.754 29.8716 38.4295 28.6 40.4107 26.0208C41.9956 23.9573 41.233 20.3726 41.1629 17.913C41.0575 16.951 41.0368 16.3802 40.2241 16.2053C39.0897 15.9612 39.1555 17.3111 39.1055 18.0477C39.4125 22.4782 39.6757 23.8381 38.6668 25.1541C36.7617 27.639 36.0771 26.9077 32.6761 26.992Z" fill="#0B7A5F"/>
<path d="M47.3058 20.025C47.8565 15.9455 47.0528 12.3557 43.4478 10.9076C41.5386 10.1408 39.5494 10.7233 36.2881 13.8821L36.9794 14.058C39.2165 11.3793 42.4308 10.2056 43.8405 12.1395C44.6315 13.2246 44.7929 14.9929 44.5647 17.0733C44.0368 21.8856 41.4242 28.3678 39.6976 31.927C39.5295 32.1259 39.338 32.8789 39.917 34.3002C40.496 35.7215 41.5484 34.6409 42.0022 33.9229C44.0585 30.468 46.6481 24.8972 47.3058 20.025Z" fill="#0B7A5F"/>
<path d="M47.2645 42.7953C46.4408 41.4112 43.5124 39.222 43.0714 38.7949C42.8656 38.5955 41.3106 36.9911 41.0053 36.7661C41.3669 38.3174 41.6482 42.0952 40.732 43.6777C41.0647 43.3241 44.0003 43.0119 45.1101 43.5149C45.9374 43.8898 48.3835 46.3204 49.0018 47.6451C49.1392 47.9393 49.4557 49.0255 50.3732 49.0479C51.2908 49.0703 50.9105 48.4799 51.8449 48.341C52.7792 48.2021 53.688 47.4109 53.638 46.929C53.598 46.5435 52.9131 46.5788 52.5757 46.6445C52.0674 46.7896 50.8657 46.9966 50.1259 46.6635C49.2011 46.2472 48.0882 44.1794 47.2645 42.7953Z" fill="#0B7A5F"/>
<path d="M28.2492 11.8989C32.0512 11.3328 36.1826 12.1776 37.7731 12.6708L36.3823 13.9071C30.3863 12.5083 23.3451 13.8872 18.3292 19.7424C13.3134 25.5977 13.8025 32.9232 14.3525 35.0415C14.9026 37.1597 16.3333 42.5918 21.9192 46.2855C26.3879 49.2405 30.6475 49.5756 32.2188 49.3737L30.6536 51.4445C21.3106 50.541 16.1394 44.4732 14.7217 41.5522C11.704 36.3226 11.8598 31.7448 12.1195 28.8087C12.3792 25.8727 14.0698 21.1745 16.9751 18.0541C19.8805 14.9338 23.4967 12.6066 28.2492 11.8989Z" fill="#0B7A5F"/>
</svg>
