<svg width="67" height="67" viewBox="0 0 67 67" fill="none" xmlns="http://www.w3.org/2000/svg">
<path d="M33.4581 15.328C21.9111 15.328 16.1427 23.4652 16.1427 32.0193C16.8665 44.0606 24.8476 47.0218 33.4581 48.3815C36.1763 43.6744 39.3558 37.2074 41.6649 34.2584C43.974 31.3094 46.1172 25.0197 46.9001 22.2435C43.5988 18.5526 38.8736 15.328 33.4581 15.328Z" fill="#F4C34A"/>
<circle cx="3.88228" cy="3.88228" r="3.88228" transform="matrix(-0.83685 0.547432 0.547432 0.83685 35.515 16.0518)" fill="#0B7A5F"/>
<circle cx="2.00142" cy="2.00142" r="2.00142" transform="matrix(-0.83685 0.547432 0.547432 0.83685 23.1552 38.7308)" fill="#0B7A5F"/>
<path d="M32.6761 26.992C29.2751 27.0762 27.333 28.7184 25.9236 30.5982C24.9097 31.9505 24.6046 35.3083 24.5647 37.2831C24.6076 37.9631 23.8838 38.7044 24.147 39.0378C24.476 39.4545 25.1769 40.7266 24.9366 41.4504C24.6963 42.1742 25.0243 41.9768 25.134 41.8452C25.205 41.76 25.463 41.2092 25.463 40.4635C25.463 39.63 25.463 39.6081 25.5288 39.0378C25.6244 38.2089 25.792 36.1865 26.3842 34.3002C26.3842 34.3002 26.9064 32.5914 28.1851 32.1968C30.3544 31.5273 33.2258 34.8689 34.3451 38.9319C35.6214 43.5645 33.6401 48.377 30.2925 51.619C28.2956 53.553 22.0194 56.2811 20.0104 53.133C18.6856 51.0572 23.0706 45.045 23.5112 43.929C21.7565 44.5431 20.1552 43.1393 20.265 41.604C19.2138 44.9374 15.4762 53.0609 22.6482 55.1246C32.6762 58.01 36.3255 51.368 38.1839 48.433C40.662 44.5193 40.8518 37.5749 39.4783 34.1247C38.8959 32.6617 38.754 31.4536 38.754 30.5982C38.754 29.8716 38.4295 28.6 40.4107 26.0208C41.9956 23.9573 41.233 20.3726 41.1629 17.913C41.0575 16.951 41.0368 16.3802 40.2241 16.2053C39.0897 15.9612 39.1555 17.3111 39.1055 18.0477C39.4125 22.4782 39.6757 23.8381 38.6668 25.1541C36.7617 27.639 36.0771 26.9077 32.6761 26.992Z" fill="#0B7A5F"/>
<path d="M47.3058 20.025C47.8565 15.9455 47.0528 12.3557 43.4478 10.9076C41.5386 10.1408 39.5494 10.7233 36.2881 13.8821L36.9794 14.058C39.2165 11.3793 42.4308 10.2056 43.8405 12.1395C44.6315 13.2246 44.7929 14.9929 44.5647 17.0733C44.0368 21.8856 41.4242 28.3678 39.6976 31.927C39.5295 32.1259 39.338 32.8789 39.917 34.3002C40.496 35.7215 41.5484 34.6409 42.0022 33.9229C44.0585 30.468 46.6481 24.8972 47.3058 20.025Z" fill="#0B7A5F"/>
<path d="M47.2645 42.7953C46.4408 41.4112 43.5124 39.222 43.0714 38.7949C42.8656 38.5955 41.3106 36.9911 41.0053 36.7661C41.3669 38.3174 41.6482 42.0952 40.732 43.6777C41.0647 43.3241 44.0003 43.0119 45.1101 43.5149C45.9374 43.8898 48.3835 46.3204 49.0018 47.6451C49.1392 47.9393 49.4557 49.0255 50.3732 49.0479C51.2908 49.0703 50.9105 48.4799 51.8449 48.341C52.7792 48.2021 53.688 47.4109 53.638 46.929C53.598 46.5435 52.9131 46.5788 52.5757 46.6445C52.0674 46.7896 50.8657 46.9966 50.1259 46.6635C49.2011 46.2472 48.0882 44.1794 47.2645 42.7953Z" fill="#0B7A5F"/>
<path d="M28.2492 11.8989C32.0512 11.3328 36.1827 12.1776 37.7731 12.6708L36.3823 13.9071C30.3863 12.5083 23.3451 13.8872 18.3292 19.7424C13.3134 25.5977 13.8025 32.9232 14.3525 35.0415C14.9026 37.1597 16.3333 42.5918 21.9192 46.2855C26.3879 49.2405 30.6475 49.5756 32.2188 49.3737L30.6536 51.4445C21.3106 50.541 16.1394 44.4732 14.7217 41.5522C11.704 36.3226 11.8598 31.7448 12.1195 28.8087C12.3792 25.8727 14.0698 21.1745 16.9751 18.0541C19.8805 14.9338 23.4967 12.6066 28.2492 11.8989Z" fill="#0B7A5F"/>
</svg>
