<svg width="60" height="65" viewBox="0 0 60 65" fill="none" xmlns="http://www.w3.org/2000/svg">
<path d="M29.797 0C46.2539 0 59.594 13.3401 59.594 29.797C59.594 46.2539 46.2539 59.594 29.797 59.594C13.3401 59.594 0 46.2539 0 29.797C0 13.3401 13.3401 0 29.797 0ZM29.797 11.9188C29.0067 11.9188 28.2488 12.2327 27.69 12.7915C27.1312 13.3503 26.8173 14.1082 26.8173 14.8985V29.797C26.8175 30.5872 27.1315 31.345 27.6904 31.9037L36.6295 40.8428C37.1914 41.3855 37.9441 41.6859 38.7254 41.6791C39.5067 41.6723 40.254 41.3589 40.8065 40.8065C41.3589 40.254 41.6723 39.5067 41.6791 38.7254C41.6859 37.9441 41.3855 37.1914 40.8428 36.6295L32.7767 28.5634V14.8985C32.7767 14.1082 32.4628 13.3503 31.904 12.7915C31.3452 12.2327 30.5873 11.9188 29.797 11.9188Z" fill="white"/>
</svg>
