<svg width="60" height="65" viewBox="0 0 60 65" fill="none" xmlns="http://www.w3.org/2000/svg">
<path fill-rule="evenodd" clip-rule="evenodd" d="M29.6827 0.25C46.0765 0.25 59.3654 13.5389 59.3654 29.9327C59.3654 46.3265 46.0765 59.6154 29.6827 59.6154C13.2889 59.6154 0 46.3265 0 29.9327C0 13.5389 13.2889 0.25 29.6827 0.25ZM35.5718 36.6113C33.9986 38.0005 31.9416 38.8375 29.6827 38.8375C27.5141 38.8373 25.4201 38.0457 23.7937 36.6113C23.2032 36.0902 22.43 35.8249 21.644 35.8739C20.858 35.9229 20.1236 36.2821 19.6025 36.8725C19.0813 37.4629 18.816 38.2362 18.865 39.0222C18.914 39.8082 19.2732 40.5426 19.8637 41.0637C22.5754 43.4553 26.067 44.7746 29.6827 44.7741C33.2994 44.7801 36.7928 43.4601 39.5017 41.0637C40.0922 40.5426 40.4514 39.8082 40.5004 39.0222C40.5494 38.2362 40.2841 37.4629 39.7629 36.8725C39.2418 36.2821 38.5074 35.9229 37.7214 35.8739C36.9354 35.8249 36.1622 36.0902 35.5718 36.6113ZM19.2938 18.0596C16.0672 18.0596 13.4819 20.078 12.1877 22.6664C11.8475 23.3436 11.7792 24.1252 11.9968 24.8511C12.2143 25.5771 12.7013 26.1923 13.3579 26.5707C14.0146 26.9491 14.791 27.062 15.5282 26.8863C16.2654 26.7106 16.9075 26.2596 17.3228 25.6257L17.495 25.3259C17.9758 24.3642 18.712 23.9962 19.2938 23.9962C19.7984 23.9962 20.4276 24.2781 20.8996 24.9935L21.0925 25.3259C21.4488 26.0235 22.0664 26.5519 22.8106 26.796C23.5549 27.0401 24.3654 26.9802 25.0657 26.6293C25.7659 26.2784 26.2991 25.665 26.549 24.9226C26.7989 24.1803 26.7453 23.3693 26.3998 22.6664C25.1027 20.078 22.5203 18.0596 19.2938 18.0596ZM40.0716 18.0596C36.8451 18.0596 34.2627 20.078 32.9656 22.6664C32.6254 23.3436 32.5571 24.1252 32.7747 24.8511C32.9922 25.5771 33.4792 26.1923 34.1358 26.5707C34.7924 26.9491 35.5689 27.062 36.3061 26.8863C37.0433 26.7106 37.6854 26.2596 38.1007 25.6257L38.2729 25.3259C38.7537 24.3642 39.4899 23.9962 40.0716 23.9962C40.5763 23.9962 41.2055 24.2781 41.6775 24.9935L41.8704 25.3259C42.0432 25.6775 42.2839 25.9914 42.5785 26.2495C42.8732 26.5076 43.2161 26.7049 43.5873 26.8299C43.9586 26.9548 44.3509 27.0051 44.7417 26.9777C45.1325 26.9504 45.514 26.8459 45.8642 26.6704C46.2144 26.4949 46.5264 26.2518 46.7822 25.9552C47.0381 25.6585 47.2326 25.3141 47.3547 24.9419C47.4768 24.5697 47.5241 24.177 47.4937 23.7865C47.4633 23.3959 47.3559 23.0152 47.1777 22.6664C45.8835 20.078 43.2982 18.0596 40.0716 18.0596Z" fill="white"/>
</svg>
