<svg width="87" height="60" viewBox="0 0 87 60" fill="none" xmlns="http://www.w3.org/2000/svg">
<path d="M30.6958 12.6602C30.5097 12.4822 30.2621 12.3828 30.0045 12.3828C29.747 12.3828 29.4994 12.4822 29.3133 12.6602L6.30078 34.6439C6.20305 34.7374 6.1253 34.8498 6.07223 34.9742C6.01916 35.0986 5.99188 35.2325 5.99203 35.3677L5.98828 56.0002C5.98828 57.0611 6.40971 58.0785 7.15985 58.8286C7.91 59.5788 8.92742 60.0002 9.98828 60.0002H22.0008C22.5312 60.0002 23.0399 59.7895 23.415 59.4144C23.7901 59.0393 24.0008 58.5306 24.0008 58.0002V41.0002C24.0008 40.735 24.1061 40.4806 24.2937 40.2931C24.4812 40.1056 24.7356 40.0002 25.0008 40.0002H35.0008C35.266 40.0002 35.5204 40.1056 35.7079 40.2931C35.8954 40.4806 36.0008 40.735 36.0008 41.0002V58.0002C36.0008 58.5306 36.2115 59.0393 36.5866 59.4144C36.9616 59.7895 37.4703 60.0002 38.0008 60.0002H50.0083C51.0691 60.0002 52.0866 59.5788 52.8367 58.8286C53.5869 58.0785 54.0083 57.0611 54.0083 56.0002V35.3677C54.0084 35.2325 53.9812 35.0986 53.9281 34.9742C53.875 34.8498 53.7973 34.7374 53.6995 34.6439L30.6958 12.6602Z" fill="white"/>
<path d="M59.3638 30.5187L50.0138 21.5737V8C50.0138 7.46957 49.8031 6.96086 49.428 6.58579C49.0529 6.21071 48.5442 6 48.0138 6H42.0138C41.4834 6 40.9747 6.21071 40.5996 6.58579C40.2245 6.96086 40.0138 7.46957 40.0138 8V12L32.7738 5.0775C32.0963 4.3925 31.0888 4 30 4C28.915 4 27.91 4.3925 27.2325 5.07875L0.645047 30.5163C-0.132453 31.2663 -0.229953 32.5 0.477547 33.3125C0.655211 33.5176 0.872749 33.6844 1.11692 33.8027C1.36109 33.9211 1.62679 33.9885 1.89785 34.0009C2.1689 34.0133 2.43965 33.9704 2.6936 33.8748C2.94756 33.7793 3.17941 33.633 3.37505 33.445L29.3125 8.66C29.4986 8.48198 29.7463 8.38262 30.0038 8.38262C30.2613 8.38262 30.5089 8.48198 30.695 8.66L56.635 33.445C57.0172 33.8114 57.529 34.0114 58.0583 34.0011C58.5876 33.9908 59.0912 33.771 59.4588 33.39C60.2263 32.595 60.1625 31.2825 59.3638 30.5187Z" fill="white"/>
<path d="M74.5582 3.35938L77.7241 11.3896L85.7543 14.5582L77.7241 17.7241L74.5582 25.7543L71.3896 17.7241L63.3594 14.5582L71.3896 11.3896L74.5582 3.35938Z" fill="white"/>
<path d="M74.5582 2.23869C75.0151 2.23869 75.4316 2.52088 75.5982 2.94819L78.5868 10.5269L86.1655 13.5154C86.374 13.5983 86.5528 13.7419 86.6788 13.9276C86.8048 14.1132 86.8722 14.3325 86.8722 14.5568C86.8722 14.7812 86.8048 15.0004 86.6788 15.1861C86.5528 15.3718 86.374 15.5154 86.1655 15.5982L78.5868 18.5868L75.5982 26.1655C75.5154 26.374 75.3718 26.5528 75.1861 26.6788C75.0004 26.8048 74.7812 26.8722 74.5568 26.8722C74.3325 26.8722 74.1132 26.8048 73.9276 26.6788C73.7419 26.5528 73.5983 26.374 73.5154 26.1655L70.5269 18.5868L62.9482 15.5982C62.7397 15.5154 62.5609 15.3718 62.4349 15.1861C62.3089 15.0004 62.2415 14.7812 62.2415 14.5568C62.2415 14.3325 62.3089 14.1132 62.4349 13.9276C62.5609 13.7419 62.7397 13.5983 62.9482 13.5154L70.5269 10.5269L73.5154 2.94819C73.5989 2.73957 73.7427 2.56061 73.9285 2.43421C74.1142 2.30781 74.3335 2.23973 74.5582 2.23869ZM74.5582 6.41238L72.4324 11.7981C72.3756 11.9408 72.2903 12.0704 72.1817 12.179C72.0731 12.2876 71.9435 12.3729 71.8008 12.4297L66.4124 14.5528L71.8008 16.6813C71.9433 16.7378 72.0727 16.8227 72.1813 16.9308C72.2899 17.0389 72.3753 17.168 72.4324 17.3102L74.5555 22.7013L76.684 17.3102C76.7408 17.1682 76.8258 17.0393 76.9339 16.9312C77.042 16.8231 77.1709 16.7381 77.3129 16.6813L82.704 14.5555L77.3129 12.4297C77.1707 12.3726 77.0416 12.2872 76.9335 12.1786C76.8253 12.07 76.7405 11.9406 76.684 11.7981L74.5582 6.41238ZM64.4801 0L65.9044 3.053L68.9574 4.47737L65.9044 5.90444L64.4801 8.95744L63.0557 5.90444L60 4.48006L63.053 3.05569L64.4801 0Z" fill="white"/>
</svg>
