<svg width="10" height="11" viewBox="0 0 10 11" fill="none" xmlns="http://www.w3.org/2000/svg">
<path d="M6.72492 3.4958L9.38521 3.88534C9.49289 3.89801 9.59107 3.94076 9.67974 4.01361C9.76842 4.08645 9.83018 4.17671 9.86501 4.28438C9.89985 4.39206 9.9046 4.49974 9.87926 4.60742C9.85393 4.7151 9.80009 4.81011 9.71775 4.89245L7.77953 6.79266L8.24509 9.50996C8.25775 9.62397 8.2435 9.73323 8.20233 9.83774C8.16116 9.94226 8.09465 10.0262 8.00281 10.0895C7.91097 10.1529 7.80804 10.1893 7.69403 10.1988C7.58001 10.2083 7.4755 10.1877 7.38049 10.137L4.99573 8.86389L2.61097 10.137C2.50962 10.1877 2.40194 10.2099 2.28793 10.2035C2.17392 10.1972 2.07257 10.1592 1.9839 10.0895C1.89522 10.0198 1.82871 9.93434 1.78438 9.83299C1.74004 9.73165 1.72737 9.62397 1.74637 9.50996L2.20242 6.79266L0.273711 4.89245C0.191369 4.81011 0.137529 4.7151 0.112193 4.60742C0.086857 4.49974 0.0916076 4.39206 0.126445 4.28438C0.161282 4.17671 0.221455 4.08645 0.306965 4.01361C0.392474 3.94076 0.489068 3.89801 0.596746 3.88534L3.26654 3.4958L4.46367 1.03503C4.51434 0.933683 4.58718 0.852925 4.68219 0.792751C4.7772 0.732578 4.88172 0.702492 4.99573 0.702492C5.10974 0.702492 5.21425 0.732578 5.30926 0.792751C5.40427 0.852925 5.47712 0.933683 5.52779 1.03503L6.72492 3.4958Z" fill="#F2B827"/>
</svg>
