<svg width="62" height="47" viewBox="0 0 62 47" fill="none" xmlns="http://www.w3.org/2000/svg">
<path d="M48.9238 9.47397C51.2798 9.47397 53.1896 7.56414 53.1896 5.20817C53.1896 2.85221 51.2798 0.942383 48.9238 0.942383C46.5678 0.942383 44.658 2.85221 44.658 5.20817C44.658 7.56414 46.5678 9.47397 48.9238 9.47397ZM34.8547 29.1562L33.5394 32.224H27.5948C26.0245 32.224 24.751 33.4975 24.751 35.0678C24.751 36.6382 26.0245 37.9117 27.5948 37.9117H34.4779C36.1886 37.9117 37.7288 36.895 38.398 35.3264L39.1791 33.5028L38.2309 32.9429C36.6916 32.0338 35.5594 30.6883 34.8547 29.1562ZM58.8773 20.8485H54.9643L52.6484 16.1162C51.5375 13.8455 49.4979 12.1854 47.1579 11.5891L40.841 9.71036C38.326 9.10604 35.707 9.66148 33.6567 11.2336L30.1312 13.9362C28.8844 14.8915 28.648 16.676 29.6051 17.9229C30.5622 19.1698 32.3459 19.4035 33.5918 18.449L37.1191 15.7465C37.8007 15.223 38.669 15.0355 39.3649 15.2008L40.6713 15.5892L37.3422 23.3556C36.2206 25.9755 37.2258 29.0442 39.6795 30.4928L47.2317 34.9514L44.7904 42.748C44.3212 44.2464 45.1557 45.8416 46.654 46.3109C46.9375 46.3997 47.2237 46.4424 47.5054 46.4424C48.715 46.4424 49.8365 45.663 50.2178 44.4472L53.0296 35.466C53.5548 33.6201 52.7728 31.6374 51.1065 30.6323L45.664 27.4205L48.4466 20.4637L50.248 24.1456C50.9589 25.5978 52.4626 26.5354 54.0792 26.5354H58.8773C60.4477 26.5354 61.7212 25.2618 61.7212 23.6915C61.7212 22.1211 60.4477 20.8485 58.8773 20.8485Z" fill="#D59802"/>
<path d="M7.6875 6.62988H27.5945" stroke="#D59802" stroke-width="2.84386" stroke-linecap="round"/>
<path d="M2 15.1616H21.907" stroke="#D59802" stroke-width="2.84386" stroke-linecap="round"/>
<path d="M4.84375 23.6929H24.7508" stroke="#D59802" stroke-width="2.84386" stroke-linecap="round"/>
</svg>
