<svg width="46" height="46" viewBox="0 0 46 46" fill="none" xmlns="http://www.w3.org/2000/svg">
<g clip-path="url(#clip0_1_1000)">
<path d="M8.95956 18.1135C9.13147 18.2655 9.36914 18.3204 9.59744 18.2741C9.82325 18.2293 10.0197 18.0729 10.1221 17.8652C10.1605 17.7873 10.5791 17.0554 11.9747 17.1835C13.768 17.3464 14.9368 18.1543 14.9483 18.1616C15.0775 18.2527 15.2274 18.2981 15.3767 18.2981C15.557 18.2981 15.7361 18.2322 15.8779 18.1033L20.3242 14.0276C20.5678 13.8035 20.634 13.4457 20.4863 13.1493L18.6223 9.42236C20.561 6.14046 24.4554 5.87811 25.6329 5.87811C25.7876 5.87811 25.8788 5.88321 25.9425 5.88542L26.8688 5.87811C27.1735 5.87591 27.4456 5.68676 27.5548 5.40222C27.6651 5.11754 27.5882 4.79619 27.3632 4.58995C25.4163 2.80797 22.9944 1.9043 20.1618 1.9043C14.5142 1.9043 8.66688 5.6421 7.48115 8.16273C6.07815 11.1441 4.31065 12.9388 4.29217 12.9572C4.14852 13.1018 4.06994 13.3002 4.07642 13.5043C4.08345 13.7087 4.17389 13.9013 4.32802 14.0369L8.95956 18.1135Z" fill="#0B7A5F"/>
<path d="M5.26222 22.9338C5.39718 23.0481 5.56758 23.1103 5.74238 23.1103C5.76416 23.1103 5.78608 23.1096 5.80759 23.1074C6.00611 23.0901 6.18864 22.9939 6.3145 22.8402L8.9082 19.6908C9.16255 19.3825 9.12671 18.9291 8.82741 18.6647L4.01058 14.4036C3.86376 14.2729 3.67338 14.2107 3.47403 14.219C3.27676 14.2317 3.09409 14.321 2.96409 14.4687L0.185244 17.6185C0.0534502 17.7667 -0.0127226 17.963 0.00202838 18.161C0.016228 18.3596 0.109559 18.5432 0.260792 18.6721L5.26222 22.9338Z" fill="#0B7A5F"/>
<path d="M45.2141 36.4573C45.1748 36.3661 45.1186 36.2851 45.0469 36.2157L32.3824 24.0665L27.2256 19.0339L37.8499 9.21274L38.3809 9.74405C38.5202 9.88329 38.7089 9.96118 38.9051 9.96118C38.915 9.96118 38.926 9.96118 38.9362 9.96049C39.1432 9.9518 39.3371 9.85668 39.4711 9.69814L43.3891 5.06012C43.5179 4.90737 43.58 4.7094 43.5606 4.51157C43.5417 4.31222 43.4431 4.12984 43.2885 4.00452L41.8375 2.83436C41.5669 2.61723 41.181 2.61503 40.909 2.83216L36.3114 6.50985C36.147 6.64206 36.0464 6.83768 36.035 7.04806C36.0227 7.25857 36.1014 7.46453 36.2506 7.61356L36.8013 8.16417L26.1631 17.998L22.2396 14.1689C21.9639 13.8998 21.5249 13.8878 21.2355 14.1407L16.1408 18.5871C15.9887 18.7194 15.8975 18.908 15.8871 19.1078C15.8769 19.3089 15.9485 19.505 16.0863 19.6519L19.9303 23.7601L19.4443 24.2097L17.5722 22.315C17.3005 22.0385 16.8571 22.0216 16.5631 22.2737L0.372356 36.1881C0.287297 36.2627 0.218918 36.3546 0.174803 36.4573C-0.366436 37.7116 0.409579 39.6928 2.10526 41.3879C3.39452 42.6781 4.93869 43.4802 6.13504 43.4802C6.54601 43.4802 6.91161 43.3889 7.22124 43.21C7.27708 43.1784 7.32877 43.1383 7.37399 43.0928L22.3146 28.1641C22.6026 27.8751 22.6041 27.4085 22.3175 27.119L20.4848 25.2649L20.9414 24.8429L37.9967 43.0763C38.0467 43.1282 38.1045 43.1746 38.1667 43.2109C38.4765 43.3903 38.8419 43.4802 39.253 43.4802C40.4487 43.4802 41.9929 42.6783 43.2831 41.3886C44.9789 39.6928 45.7553 37.7116 45.2141 36.4573ZM2.59314 37.7506C2.48934 37.7506 2.38649 37.7065 2.31315 37.6224C2.17887 37.4676 2.19583 37.2346 2.35106 37.1L15.9499 25.3198C16.1038 25.186 16.3383 25.2026 16.4723 25.3575C16.6066 25.5122 16.5897 25.7459 16.4347 25.8799L2.83564 37.6599C2.76519 37.7208 2.67944 37.7506 2.59314 37.7506ZM4.53862 39.6959C4.4424 39.6959 4.34603 39.6583 4.27338 39.5836C4.13125 39.4374 4.13401 39.2023 4.28096 39.0597L17.1108 26.569C17.2566 26.4269 17.4906 26.4298 17.6344 26.5762C17.7769 26.7223 17.7736 26.9582 17.6272 27.1001L4.79725 39.5907C4.72529 39.6612 4.63196 39.6959 4.53862 39.6959ZM19.4367 28.2993L6.74618 41.0686C6.67353 41.1424 6.57868 41.1778 6.48383 41.1778C6.38898 41.1778 6.29496 41.1415 6.22217 41.07C6.07783 40.9261 6.07701 40.6909 6.22079 40.5461L18.9114 27.7767C19.0561 27.6313 19.2909 27.6313 19.4354 27.7752C19.5796 27.9192 19.5814 28.1537 19.4367 28.2993Z" fill="#0B7A5F"/>
</g>
<defs>
<clipPath id="clip0_1_1000">
<rect width="45.3848" height="45.3848" fill="white"/>
</clipPath>
</defs>
</svg>
