<svg width="39" height="63" viewBox="0 0 39 63" fill="none" xmlns="http://www.w3.org/2000/svg">
<path d="M24.9717 45.4051L22.3557 41.801L18.2056 36.083C16.5414 36.083 14.919 36.083 13.8099 36.083C13.4565 36.083 13.121 35.9257 12.8935 35.6553C12.6659 35.3849 12.5689 35.0282 12.6286 34.68L13.1589 31.5943L10.8381 30.4673L8.9562 40.1838C8.87921 40.5816 8.98395 40.993 9.24172 41.3057C9.49949 41.6184 9.88363 41.801 10.289 41.801C10.8153 41.801 11.4467 41.801 12.1536 41.801V59.527C12.1536 61.1465 13.4666 62.4594 15.0861 62.4594C16.7056 62.4594 18.0185 61.1466 18.0185 59.527V41.801C18.4401 41.801 18.8631 41.801 19.2847 41.801V59.527C19.2847 61.1465 20.5976 62.4594 22.2171 62.4594C23.8366 62.4594 25.1496 61.1466 25.1496 59.527V51.5724C24.103 49.654 24.0493 47.354 24.9717 45.4051Z" fill="#0B7A5F"/>
<path d="M18.6524 11.0548C21.4494 11.0548 23.7169 8.78737 23.7169 5.99031C23.7169 3.19325 21.4494 0.925781 18.6524 0.925781C15.8553 0.925781 13.5878 3.19325 13.5878 5.99031C13.5878 8.78737 15.8553 11.0548 18.6524 11.0548Z" fill="#0B7A5F"/>
<path d="M22.1963 18.8937C22.8921 24.5815 22.6572 22.9416 23.235 26.3048L25.2737 24.3179C24.8993 22.3854 25.0007 23.0081 24.8359 21.6608C25.2986 22.8098 25.8044 24.0222 26.2779 25.2453L20.5113 30.8656C19.5448 31.8076 19.5249 33.3548 20.4668 34.3213C21.4086 35.2876 22.9558 35.3077 23.9224 34.3656L30.8309 27.6323C31.5167 26.9637 31.7489 25.956 31.4245 25.0549C30.3849 22.1661 29.2122 19.6125 28.5349 17.6413C27.6224 14.9862 26.2127 13.3853 24.3339 12.8611C23.0445 16.5001 22.9321 16.8171 22.1963 18.8937Z" fill="#0B7A5F"/>
<path d="M28.0187 38.4862L27.0075 33.2654L25.3804 34.8512L28.0187 38.4862Z" fill="#0B7A5F"/>
<path d="M35.1863 45.8142L35.1084 45.707L35.1862 45.8142H35.1863Z" fill="#0B7A5F"/>
<path d="M32.7336 43.8381C31.6889 43.4624 30.5014 43.4518 29.4086 43.8732C29.4079 43.8735 29.4072 43.8736 29.4067 43.8739L23.7622 36.0972C22.8237 36.5137 21.7394 36.5384 20.7669 36.1388L27.4249 45.3124C26.8774 45.9815 26.4963 46.8411 26.389 47.7758C26.2212 49.2313 26.6448 50.2582 27.4787 51.407L35.1845 45.8139C34.6589 45.0888 34.0523 44.3205 32.7336 43.8381Z" fill="#0B7A5F"/>
<path d="M38.8069 50.8041L36.3033 47.3547L28.5974 52.9479L28.5973 52.9477L31.101 56.3972C31.1013 56.3975 31.1015 56.3978 31.1018 56.3982C31.8261 57.3918 34.6634 55.8432 35.6847 55.1384C37.5567 53.8435 39.4557 51.6982 38.8069 50.8041Z" fill="#0B7A5F"/>
<path d="M18.0829 29.5246C18.6724 28.3105 18.1661 26.8484 16.9521 26.2588C16.9521 26.2588 10.9614 23.3212 10.949 23.315C13.6612 18.8783 13.3332 19.4317 13.7001 18.76L14.9177 20.4375L15.0893 19.0344C14.1283 16.3224 14.0147 16.0021 12.9084 12.8801C11.8863 13.1886 11.1623 13.8029 10.6065 14.4976C10.1262 15.0979 9.77494 15.7505 9.43991 16.364L2.81258 7.23327C2.42531 6.69964 1.65907 6.55871 1.10381 6.96094C1.10341 6.96122 1.103 6.96135 1.10273 6.96162C0.555629 7.35882 0.433886 8.12438 0.831082 8.67147L8.08413 18.6645C7.28512 19.9552 6.30681 21.4749 5.48685 22.722C4.40218 24.3716 4.96968 25.8736 6.29389 26.5166L14.8172 30.6556C16.0317 31.245 17.4935 30.738 18.0829 29.5246Z" fill="#0B7A5F"/>
<path d="M22.3813 12.6689H14.8538C15.2733 13.8525 16.5055 17.3297 16.9748 18.6542C18.2537 18.6542 19.1163 18.6542 20.2603 18.6542C20.7315 17.3246 21.9717 13.8246 22.3813 12.6689Z" fill="#0B7A5F"/>
</svg>
