<svg width="57" height="57" viewBox="0 0 57 57" fill="none" xmlns="http://www.w3.org/2000/svg">
<g clip-path="url(#clip0_90_629)">
<path d="M41.5625 39.9475L47.3575 43.2962L45.5763 46.3838L38 42.0138V33.25H41.5625V39.9475ZM57 40.375C57 49.5662 49.5662 57 40.375 57C31.1838 57 23.75 49.5662 23.75 40.375C23.75 39.5675 23.8212 38.7838 23.94 38H4.75V9.5H47.5V25.365C53.105 28.0487 57 33.7488 57 40.375ZM25.365 33.25C25.7925 32.395 26.2437 31.5875 26.79 30.8038C26.5763 30.875 26.3625 30.875 26.125 30.875C22.1825 30.875 19 27.6925 19 23.75C19 19.8075 22.1825 16.625 26.125 16.625C30.0675 16.625 33.25 19.8075 33.25 23.75C33.25 24.3438 33.155 24.9375 33.0125 25.4837C35.245 24.3912 37.7388 23.75 40.375 23.75C41.1825 23.75 41.9663 23.8212 42.75 23.94V19C41.4902 19 40.282 18.4996 39.3912 17.6088C38.5004 16.718 38 15.5098 38 14.25H14.25C14.25 16.8863 12.1363 19 9.5 19V28.5C10.7598 28.5 11.968 29.0004 12.8588 29.8912C13.7496 30.782 14.25 31.9902 14.25 33.25H25.365ZM52.25 40.375C52.25 33.82 46.93 28.5 40.375 28.5C33.82 28.5 28.5 33.82 28.5 40.375C28.5 46.93 33.82 52.25 40.375 52.25C46.93 52.25 52.25 46.93 52.25 40.375Z" fill="#0B7A5F"/>
</g>
<defs>
<clipPath id="clip0_90_629">
<rect width="57" height="57" fill="white"/>
</clipPath>
</defs>
</svg>
