<svg width="58" height="47" viewBox="0 0 58 47" fill="none" xmlns="http://www.w3.org/2000/svg">
<path d="M55.6109 20.682L49.8952 11.2013C49.4768 10.5128 48.8889 9.9432 48.1876 9.54685C47.4862 9.1505 46.6949 8.94068 45.8894 8.93744H41.4019V8.27114C41.4019 7.30891 41.2119 6.35615 40.8427 5.46757C40.4735 4.57899 39.9324 3.77211 39.2504 3.09326C37.8719 1.71959 36.0053 0.947947 34.0592 0.947182H7.34557C5.89165 0.937558 4.46792 1.36201 3.25662 2.16621C2.04532 2.9704 1.10154 4.11776 0.546089 5.46144C0.178576 6.35223 -0.00702751 7.30754 0.000203433 8.27114V32.2419C0.00171055 33.3677 0.411063 34.4548 1.15247 35.302C1.89389 36.1492 2.91714 36.6991 4.0328 36.8498C4.02031 37.0907 4.02031 37.3306 4.0328 37.5697C4.02328 38.7046 4.24307 39.8298 4.67898 40.8777C5.11488 41.9256 5.75793 42.8747 6.56956 43.6681C7.36599 44.497 8.31932 45.1593 9.37409 45.6164C10.4289 46.0735 11.564 46.3162 12.7134 46.3306C15.0076 46.3098 17.2024 45.3915 18.8279 43.7724C20.4519 42.1559 21.3746 39.9653 21.3968 37.674C21.4105 37.453 21.4105 37.2314 21.3968 37.0104H36.1383C36.1246 37.2314 36.1246 37.453 36.1383 37.674C36.1285 38.8094 36.3481 39.9351 36.784 40.9835C37.2199 42.0319 37.8631 42.9814 38.6751 43.7751C39.4722 44.6047 40.4264 45.2673 41.4821 45.7244C42.5378 46.1816 43.674 46.424 44.8243 46.4376C47.1185 46.4168 49.3133 45.4985 50.9388 43.8794C52.5618 42.2625 53.4836 40.072 53.505 37.7811C53.5188 37.5592 53.5188 37.3366 53.505 37.1148H55.528C56.0558 37.1072 56.56 36.8947 56.934 36.5222C57.308 36.1497 57.5226 35.6463 57.5322 35.1185V27.4226C57.5322 25.0411 56.8659 22.7077 55.6109 20.682ZM17.3615 37.567C17.3623 38.1787 17.2397 38.7842 17.0011 39.3475C16.7625 39.9107 16.4127 40.42 15.9727 40.845C15.0825 41.6909 13.9013 42.1625 12.6733 42.1625C11.4453 42.1625 10.2641 41.6909 9.37391 40.845C8.93999 40.412 8.59638 39.8971 8.36302 39.3303C8.12967 38.7634 8.01122 38.1559 8.01455 37.5429C8.00198 36.91 8.12992 36.2821 8.38917 35.7046C8.74239 34.867 9.34983 34.1606 10.1232 33.6789C10.9141 33.1561 11.8458 32.8872 12.7937 32.9082C13.6982 32.9082 14.5812 33.1758 15.3305 33.6789C16.0985 34.1686 16.7032 34.8723 17.0698 35.7046C17.3321 36.2799 17.4712 36.9087 17.4685 37.5429L17.3615 37.567ZM26.0421 24.2517H12.6894C11.9824 24.251 11.3045 23.9706 10.8036 23.4717C10.3028 22.9728 10.0197 22.296 10.0161 21.5891C10.0154 21.2385 10.0841 20.8912 10.2181 20.5671C10.3521 20.2431 10.5489 19.9488 10.7971 19.7011C11.0453 19.4534 11.34 19.2572 11.6643 19.1238C11.9886 18.9905 12.336 18.9225 12.6867 18.9239H26.0421C26.7491 18.9253 27.4267 19.2064 27.9271 19.7058C28.4274 20.2051 28.7099 20.8822 28.7127 21.5891C28.7131 21.9396 28.6442 22.2866 28.51 22.6103C28.3758 22.934 28.179 23.228 27.9308 23.4755C27.6827 23.7229 27.388 23.9188 27.0639 24.052C26.7398 24.1852 26.3926 24.2531 26.0421 24.2517ZM26.0421 15.0894H12.6894C11.9824 15.0887 11.3045 14.8083 10.8036 14.3094C10.3028 13.8105 10.0197 13.1337 10.0161 12.4268C10.0158 12.0764 10.0847 11.7294 10.2188 11.4056C10.353 11.0819 10.5499 10.7879 10.798 10.5405C11.0462 10.2931 11.3408 10.0971 11.6649 9.96394C11.989 9.83073 12.3363 9.76289 12.6867 9.7643H26.0421C26.7486 9.7657 27.4258 10.0464 27.9261 10.5452C28.4264 11.044 28.7092 11.7204 28.7127 12.4268C28.7131 12.7773 28.6442 13.1243 28.51 13.448C28.3758 13.7717 28.179 14.0657 27.9308 14.3132C27.6827 14.5606 27.388 14.7565 27.0639 14.8897C26.7398 15.0229 26.3926 15.0908 26.0421 15.0894ZM49.4135 37.567C49.414 38.1789 49.291 38.7846 49.0519 39.3478C48.8128 39.911 48.4625 40.4202 48.022 40.845C47.132 41.6901 45.9514 42.1613 44.724 42.1613C43.4966 42.1613 42.316 41.6901 41.4259 40.845C40.9915 40.4122 40.6474 39.8974 40.4136 39.3306C40.1798 38.7637 40.0609 38.1561 40.0639 37.5429C40.0525 36.5726 40.3631 35.626 40.9469 34.8509C41.6052 33.9759 42.5498 33.3524 43.6175 33.0929H44.2865C44.4088 33.0637 44.5362 33.0637 44.6584 33.0929H45.1936C46.0044 33.1865 46.7778 33.4889 47.436 33.9732C48.097 34.4576 48.6134 35.1105 48.9319 35.8651C49.1968 36.4404 49.3332 37.0693 49.3332 37.7008L49.4135 37.567Z" fill="#D59802"/>
<path d="M44.7152 32.8801C44.5921 32.8505 44.4637 32.8505 44.3406 32.8801H44.7152Z" fill="#D59802"/>
</svg>
