<svg width="40" height="40" viewBox="0 0 40 40" fill="none" xmlns="http://www.w3.org/2000/svg">
<g clip-path="url(#clip0_1_1063)">
<path d="M40 37.8127H37.1562C35.4062 34.0002 33.9375 29.8752 33.2188 25.969C33.0625 25.1565 32.875 24.3752 32.8125 23.5627C32.4688 20.3127 32.7812 17.3127 34.0625 14.9065L34.2812 15.0002C35.0625 15.7502 36.125 20.0315 36.1562 21.1252C37.4688 18.9377 37.1563 15.719 35.6562 13.6877C35.7188 13.719 35.9375 13.8752 36.875 14.4065L37.4688 13.6252L37.375 14.969C37.625 15.1565 38.25 15.9065 38.375 15.969L38.9688 15.2502L38.9375 16.594C39.1562 16.9065 39.4062 17.0627 39.6562 17.3752C40.3125 13.4065 37.1562 12.1565 35.3125 12.0002C36.0938 11.1565 37.9062 10.4377 39.9062 12.1252C39.7812 8.56273 34.4375 9.06274 34 11.4377C33.875 7.75024 28.0938 4.90649 26.25 7.87524C26.4688 7.87524 27.3437 8.12523 28.3438 8.56273L29.3437 7.25024V9.03148C29.6562 9.21898 30 9.37524 30.3125 9.56274L31.6562 8.62524V10.5627C32.125 11.0002 32.4375 11.4377 32.5625 11.9065C32.5625 11.9065 24.3438 9.46899 25.9688 17.2502C25.9688 17.2502 28.4688 12.094 32.4375 13.6565L32.0938 14.1252C30.0625 17.6252 30.0938 23.0315 31.0312 28.1565C30.375 29.094 29.5625 29.969 28.5938 30.719C28.125 31.094 27.6562 31.4065 27.1562 31.6877L25.0938 29.344C24.8125 29.0315 24.3437 28.9377 24 29.1252L21.7188 30.3752C20.7812 30.1565 15.9375 28.9377 15.5625 28.9065C15.125 28.9065 15 29.219 14.9063 29.7815C14.9063 29.8752 14.875 29.969 14.875 30.0315C14.875 30.0627 14.875 30.1252 14.875 30.1877C14.875 30.344 15 31.0002 15.1562 31.7815C13.9688 31.1252 12.875 30.2502 11.9687 29.2502C11.25 28.469 10.6563 27.6252 10.2188 26.7502C9.96875 22.4065 9.1875 18.3127 7.28125 15.0627L6.9375 14.594C10.9063 13.0315 12.5313 19.344 12.5313 19.344C14.1563 11.5627 6.8125 12.844 6.8125 12.844C6.9375 12.3752 7.25 11.9377 7.71875 11.5002V9.75024L9.0625 10.469C9.375 10.2815 9.71875 10.1252 10.0313 9.93773L9.0625 8.15649L11.0312 9.46898C12.0312 9.03148 12.9062 8.78149 13.125 8.78149C11.2812 5.81274 5.34375 8.09399 5.21875 11.7502C5.0625 10.094 1.75 8.68773 0.656252 11.969C2.71875 11.1252 2.1875 11.4377 3.34375 12.719C-0.0624961 12.5315 -0.312498 15.219 0.343752 19.1877C0.593752 18.8752 1.21875 16.3752 2.0625 15.5627C2.90625 14.7502 3.4375 14.594 3.5625 14.8127C2.03125 16.8127 1.90625 19.8127 3.21875 22.0002C3.25 20.9065 4.3125 16.6252 5.09375 15.8752L5.3125 15.7815C8.375 21.594 7.5 29.7502 6.9375 37.7502H0.0625038H0V40.1252H0.0625038H40.0625H40.125V37.8127H40ZM19.75 33.0002C20.4375 33.1877 21.2188 33.094 21.625 32.594L24.1875 31.094L25.4688 32.5627C23.6875 33.2502 21.7812 33.5315 19.9375 33.3752C18.9062 33.2815 17.875 33.0627 16.875 32.6877L16.7813 32.2502C17.875 32.5002 19.75 33.0002 19.75 33.0002ZM24.5312 37.7815H11.6562H10.0625C10.1875 34.8127 10.3125 31.719 10.2188 28.6877C10.5313 29.1252 10.8437 29.5315 11.2187 29.9065C12.4062 31.1877 13.8125 32.219 15.3438 32.969C15.5938 34.1252 15.8438 35.219 15.8438 35.219C15.9063 35.5315 16.125 35.7815 16.4375 35.844C16.5313 35.8752 16.6563 35.8752 16.7813 35.844C17.2188 35.7815 17.5 35.344 17.4375 34.9065L17.1562 33.6252C18.0312 33.9065 18.9688 34.094 19.875 34.1877C20.625 34.2502 21.4062 34.2502 22.1875 34.1877C23.5312 34.0627 24.8438 33.719 26.125 33.1877L27.1875 34.4065C27.5 34.7815 28.0625 34.8127 28.4375 34.5002C28.8125 34.1877 28.8438 33.6252 28.5312 33.2502L27.75 32.344C28.2188 32.0627 28.6875 31.7502 29.125 31.4065C29.9375 30.7815 30.6562 30.094 31.25 29.344C31.9062 32.469 32.9062 35.4065 33.9688 37.6877H24.5312V37.7815ZM13.8125 26.3127C14.5938 26.5002 15.0312 27.2815 14.8125 28.0627C14.625 28.8127 13.8437 29.2815 13.0625 29.0627C12.3125 28.844 11.8438 28.094 12.0625 27.3127C12.25 26.5627 13.0313 26.1252 13.8125 26.3127Z" fill="#0B7A5F"/>
</g>
<defs>
<clipPath id="clip0_1_1063">
<rect width="40" height="40" fill="white"/>
</clipPath>
</defs>
</svg>
