<svg width="32" height="32" viewBox="0 0 32 32" fill="none" xmlns="http://www.w3.org/2000/svg">
<path d="M16 25.9998C14.224 26.8292 11.8893 27.3332 9.33329 27.3332C7.91196 27.3332 6.55996 27.1772 5.33329 26.8972C3.22396 26.4132 2.66663 25.1732 2.66663 23.1812V8.8185C2.66663 7.50517 4.05329 6.60384 5.33329 6.89717C6.55996 7.17717 7.91196 7.33317 9.33329 7.33317C11.8893 7.33317 14.224 6.82917 16 5.99984C17.776 5.1705 20.1106 4.6665 22.6666 4.6665C24.088 4.6665 25.44 4.8225 26.6666 5.1025C28.776 5.5865 29.3333 6.8265 29.3333 8.8185V23.1812C29.3333 24.4945 27.9466 25.3958 26.6666 25.1025C25.44 24.8225 24.088 24.6665 22.6666 24.6665C20.1106 24.6665 17.776 25.1705 16 25.9998Z" stroke="#0B7A5F" stroke-width="2" stroke-linecap="round" stroke-linejoin="round"/>
<path d="M7.33325 17.3332V17.3452M24.6666 14.6558V14.6692M19.3333 15.9998C19.3333 16.8839 18.9821 17.7317 18.3569 18.3569C17.7318 18.982 16.884 19.3332 15.9999 19.3332C15.1159 19.3332 14.268 18.982 13.6429 18.3569C13.0178 17.7317 12.6666 16.8839 12.6666 15.9998C12.6666 15.1158 13.0178 14.2679 13.6429 13.6428C14.268 13.0177 15.1159 12.6665 15.9999 12.6665C16.884 12.6665 17.7318 13.0177 18.3569 13.6428C18.9821 14.2679 19.3333 15.1158 19.3333 15.9998Z" stroke="#0B7A5F" stroke-width="2" stroke-linecap="round" stroke-linejoin="round"/>
</svg>
