<svg width="29" height="28" viewBox="0 0 29 28" fill="none" xmlns="http://www.w3.org/2000/svg">
<path d="M20.6667 14.0417C20.6667 13.1938 19.9729 12.5001 19.125 12.5001H14.5C13.6521 12.5001 12.9583 13.1938 12.9583 14.0417C12.9583 14.8897 13.6521 15.5834 14.5 15.5834H19.125C19.9729 15.5834 20.6667 14.8897 20.6667 14.0417ZM14.5 3.25008C20.4493 3.25008 25.2917 8.09246 25.2917 14.0417C25.2917 19.991 20.4493 24.8334 14.5 24.8334C8.55071 24.8334 3.70833 19.991 3.70833 14.0417C3.70833 8.09246 8.55071 3.25008 14.5 3.25008ZM14.5 0.166748C6.83637 0.166748 0.625 6.37812 0.625 14.0417C0.625 21.7054 6.83637 27.9167 14.5 27.9167C22.1636 27.9167 28.375 21.7054 28.375 14.0417C28.375 6.37812 22.1636 0.166748 14.5 0.166748ZM16.0417 9.41675C16.0417 8.56883 15.3479 7.87508 14.5 7.87508C13.6521 7.87508 12.9583 8.56883 12.9583 9.41675V14.0417C12.9583 14.8897 13.6521 15.5834 14.5 15.5834C15.3479 15.5834 16.0417 14.8897 16.0417 14.0417V9.41675ZM14.5 6.33341C18.7504 6.33341 22.2083 9.79137 22.2083 14.0417C22.2083 18.2921 18.7504 21.7501 14.5 21.7501C10.2496 21.7501 6.79167 18.2921 6.79167 14.0417C6.79167 9.79137 10.2496 6.33341 14.5 6.33341ZM14.5 4.79175C12.0467 4.79175 9.69397 5.7663 7.95926 7.50101C6.22455 9.23572 5.25 11.5885 5.25 14.0417C5.25 16.495 6.22455 18.8478 7.95926 20.5825C9.69397 22.3172 12.0467 23.2917 14.5 23.2917C16.9533 23.2917 19.306 22.3172 21.0407 20.5825C22.7754 18.8478 23.75 16.495 23.75 14.0417C23.75 11.5885 22.7754 9.23572 21.0407 7.50101C19.306 5.7663 16.9533 4.79175 14.5 4.79175Z" fill="#0B7A5F"/>
</svg>
